<svg width="80" height="80" viewBox="0 0 80 80" fill="none" xmlns="http://www.w3.org/2000/svg">
<path d="M40.0281 17.9313C40.1682 15.9912 40.8089 14.1205 41.8878 12.5019C42.9666 10.8834 44.4467 9.57215 46.1836 8.69632C47.9204 7.8205 49.8547 7.40998 51.7975 7.50484C53.7404 7.5997 55.6255 8.1967 57.2687 9.23756C57.4566 9.36048 57.6079 9.53174 57.7068 9.73334C57.8056 9.93494 57.8483 10.1594 57.8304 10.3832C57.8125 10.607 57.7346 10.8219 57.605 11.0052C57.4754 11.1885 57.2988 11.3336 57.0937 11.4251C54.2371 12.7103 51.8123 14.7929 50.1105 17.4227C48.4086 20.0524 47.5022 23.1176 47.5 26.2501C47.5 26.6157 47.5 26.9813 47.5375 27.3407C47.5547 27.5678 47.5096 27.7954 47.4069 27.9987C47.3042 28.2021 47.1479 28.3735 46.9548 28.4944C46.7618 28.6154 46.5394 28.6813 46.3116 28.6851C46.0839 28.6888 45.8594 28.6302 45.6625 28.5157C43.8208 27.4623 42.3146 25.9095 41.3177 24.0367C40.3207 22.1639 39.8737 20.0473 40.0281 17.9313ZM75 50.1907C75.0045 51.6192 74.6087 53.0205 73.8576 54.2356C73.1064 55.4507 72.0299 56.4311 70.75 57.0657L70.6125 57.1282L58.4781 62.2969C58.3582 62.3498 58.2337 62.3916 58.1063 62.4219L38.1063 67.4219C37.9082 67.4729 37.7045 67.4991 37.5 67.5001H5C3.67392 67.5001 2.40215 66.9733 1.46447 66.0356C0.526784 65.0979 0 63.8261 0 62.5001V50.0001C0 48.674 0.526784 47.4022 1.46447 46.4645C2.40215 45.5268 3.67392 45.0001 5 45.0001H13.9656L21.0344 37.9282C21.9613 36.9971 23.0635 36.259 24.2773 35.7564C25.4911 35.2538 26.7925 34.9968 28.1063 35.0001H43.75C45.0705 34.9999 46.374 35.2987 47.5626 35.8739C48.7513 36.4492 49.7943 37.286 50.6136 38.3217C51.4328 39.3574 52.007 40.5651 52.2931 41.8543C52.5792 43.1434 52.5698 44.4807 52.2656 45.7657L65.3406 42.7594C66.4789 42.458 67.6711 42.422 68.8255 42.6541C69.9799 42.8862 71.0656 43.3803 71.9988 44.0983C72.9321 44.8163 73.688 45.739 74.2083 46.7953C74.7287 47.8515 74.9995 49.0132 75 50.1907ZM70 50.1907C69.9996 49.7773 69.904 49.3696 69.7205 48.9992C69.5371 48.6288 69.2708 48.3056 68.9423 48.0547C68.6137 47.8039 68.2318 47.6321 67.8262 47.5527C67.4205 47.4733 67.002 47.4884 66.6031 47.5969L66.5063 47.6219L45.5688 52.4376C45.3851 52.4786 45.1975 52.4995 45.0094 52.5001H35C34.337 52.5001 33.7011 52.2367 33.2322 51.7678C32.7634 51.299 32.5 50.6631 32.5 50.0001C32.5 49.337 32.7634 48.7011 33.2322 48.2323C33.7011 47.7634 34.337 47.5001 35 47.5001H43.75C44.7446 47.5001 45.6984 47.105 46.4016 46.4017C47.1049 45.6984 47.5 44.7446 47.5 43.7501C47.5 42.7555 47.1049 41.8017 46.4016 41.0984C45.6984 40.3951 44.7446 40.0001 43.75 40.0001H28.1063C27.4494 39.998 26.7987 40.1264 26.1919 40.3781C25.5852 40.6297 25.0345 40.9994 24.5719 41.4657L17.5 48.5344V62.5001H37.1875L56.6969 57.6219L68.5719 52.5657C69.0041 52.338 69.3657 51.9962 69.6175 51.5775C69.8692 51.1589 70.0015 50.6792 70 50.1907ZM52.5 26.2501C52.5 28.4751 53.1598 30.6502 54.396 32.5002C55.6321 34.3503 57.3891 35.7922 59.4448 36.6437C61.5005 37.4952 63.7625 37.718 65.9448 37.2839C68.1271 36.8498 70.1316 35.7783 71.705 34.205C73.2783 32.6317 74.3498 30.6271 74.7838 28.4448C75.2179 26.2625 74.9951 24.0005 74.1436 21.9449C73.2922 19.8892 71.8502 18.1322 70.0002 16.896C68.1501 15.6599 65.975 15.0001 63.75 15.0001C60.7663 15.0001 57.9048 16.1853 55.795 18.2951C53.6853 20.4049 52.5 23.2664 52.5 26.2501Z" fill="#F70088"/>
</svg>
