<svg width="55" height="65" viewBox="0 0 55 65" fill="none" xmlns="http://www.w3.org/2000/svg">
<path d="M54.2688 18.2313L36.7688 0.731251C36.5364 0.499165 36.2606 0.31513 35.9571 0.18966C35.6536 0.0641895 35.3284 -0.000257465 35 7.72996e-07H5C3.67392 7.72996e-07 2.40215 0.526785 1.46447 1.46447C0.526784 2.40215 0 3.67392 0 5V60C0 61.3261 0.526784 62.5979 1.46447 63.5355C2.40215 64.4732 3.67392 65 5 65H50C51.3261 65 52.5979 64.4732 53.5355 63.5355C54.4732 62.5979 55 61.3261 55 60V20C55.0003 19.6716 54.9358 19.3464 54.8103 19.0429C54.6849 18.7394 54.5008 18.4636 54.2688 18.2313ZM37.5 47.5H17.5C16.837 47.5 16.2011 47.2366 15.7322 46.7678C15.2634 46.2989 15 45.663 15 45C15 44.337 15.2634 43.7011 15.7322 43.2322C16.2011 42.7634 16.837 42.5 17.5 42.5H37.5C38.163 42.5 38.7989 42.7634 39.2678 43.2322C39.7366 43.7011 40 44.337 40 45C40 45.663 39.7366 46.2989 39.2678 46.7678C38.7989 47.2366 38.163 47.5 37.5 47.5ZM37.5 37.5H17.5C16.837 37.5 16.2011 37.2366 15.7322 36.7678C15.2634 36.2989 15 35.663 15 35C15 34.337 15.2634 33.7011 15.7322 33.2322C16.2011 32.7634 16.837 32.5 17.5 32.5H37.5C38.163 32.5 38.7989 32.7634 39.2678 33.2322C39.7366 33.7011 40 34.337 40 35C40 35.663 39.7366 36.2989 39.2678 36.7678C38.7989 37.2366 38.163 37.5 37.5 37.5ZM35 20V6.25L48.75 20H35Z" fill="#1E861E"/>
</svg>
