<svg width="76" height="60" viewBox="0 0 76 60" fill="none" xmlns="http://www.w3.org/2000/svg">
<path d="M61.6932 37.2128C58.696 39.0347 55.2537 39.9929 51.7463 39.9816C48.8079 39.9583 45.9028 39.3573 43.1963 38.2128C41.1104 41.1576 39.9941 44.6792 40.0026 48.2878V57.5034C40.0033 57.8462 39.9336 58.1854 39.7977 58.5C39.6619 58.8147 39.4628 59.098 39.2128 59.3325C38.9628 59.5669 38.6673 59.7474 38.3446 59.8629C38.0219 59.9783 37.6789 60.0262 37.3369 60.0034C36.6943 59.9475 36.0967 59.6507 35.6637 59.1726C35.2308 58.6944 34.9946 58.0703 35.0026 57.4253V53.5378L22.9338 41.4691C21.1397 42.1384 19.2424 42.4885 17.3276 42.5034C14.6915 42.51 12.1049 41.7887 9.85256 40.4191C3.04318 36.2816 -0.622442 26.7597 0.0869326 14.9378C0.12265 14.3262 0.381704 13.749 0.814913 13.3158C1.24812 12.8826 1.82532 12.6235 2.43693 12.5878C14.2588 11.8909 23.7807 15.5441 27.9057 22.3534C29.5264 25.0225 30.2339 28.1466 29.9213 31.2534C29.9019 31.4942 29.8131 31.7241 29.6658 31.9154C29.5185 32.1068 29.3189 32.2514 29.0911 32.3317C28.8634 32.412 28.6172 32.4247 28.3825 32.3681C28.1477 32.3115 27.9343 32.1881 27.7682 32.0128L21.7682 25.7316C21.2955 25.2825 20.6662 25.0359 20.0142 25.0442C19.3623 25.0526 18.7395 25.3152 18.2785 25.7763C17.8175 26.2373 17.5548 26.8601 17.5465 27.512C17.5381 28.1639 17.7848 28.7933 18.2338 29.2659L35.0713 46.5316C35.0901 46.2878 35.1119 46.0441 35.1369 45.8034C35.6836 41.1683 37.729 36.8384 40.9619 33.4722L56.7713 16.7659C57.2404 16.2973 57.5041 15.6614 57.5044 14.9983C57.5047 14.3352 57.2416 13.6991 56.7729 13.23C56.3042 12.7609 55.6683 12.4972 55.0052 12.4969C54.3421 12.4966 53.706 12.7598 53.2369 13.2284L37.9244 29.4222C37.7712 29.5845 37.5772 29.7029 37.3627 29.7649C37.1482 29.8269 36.921 29.8304 36.7048 29.7749C36.4885 29.7194 36.2911 29.6069 36.133 29.4493C35.9748 29.2917 35.8618 29.0945 35.8057 28.8784C34.3244 23.4159 34.9776 17.9784 37.8057 13.3097C43.3869 4.0972 56.3744 -0.834053 72.5494 0.115947C73.161 0.151664 73.7382 0.41072 74.1714 0.843929C74.6047 1.27714 74.8637 1.85434 74.8994 2.46595C75.8369 18.6441 70.9057 31.6316 61.6932 37.2128Z" fill="#1E861E"/>
</svg>
