<svg width="80" height="55" viewBox="0 0 80 55" fill="none" xmlns="http://www.w3.org/2000/svg">
<path d="M79.4662 18.7195L71.4912 2.76324C71.1974 2.17595 70.7908 1.65228 70.2946 1.22214C69.7984 0.792003 69.2223 0.46382 68.5993 0.256334C67.9763 0.0488489 67.3184 -0.0338757 66.6634 0.0128853C66.0084 0.0596463 65.369 0.234978 64.7818 0.528865L57.0099 4.41324L40.638 0.0819897C40.218 -0.0273299 39.7769 -0.0273299 39.3568 0.0819897L22.9849 4.41324L15.213 0.528865C14.6258 0.234978 13.9864 0.0596463 13.3314 0.0128853C12.6764 -0.0338757 12.0186 0.0488489 11.3956 0.256334C10.7725 0.46382 10.1965 0.792003 9.70026 1.22214C9.20407 1.65228 8.79746 2.17595 8.50367 2.76324L0.528672 18.7164C0.234784 19.3036 0.059454 19.943 0.012693 20.598C-0.034068 21.253 0.0486565 21.9108 0.256142 22.5339C0.463628 23.1569 0.79181 23.733 1.22195 24.2291C1.65209 24.7253 2.17575 25.1319 2.76305 25.4257L11.2005 29.6476L28.5412 42.032C28.7967 42.2138 29.0839 42.3463 29.388 42.4226L49.388 47.4226C49.8069 47.5276 50.2458 47.5224 50.662 47.4074C51.0782 47.2924 51.4576 47.0715 51.763 46.7664L64.263 34.2664L68.9755 29.5539L77.2318 25.4257C78.4171 24.8324 79.3182 23.7927 79.7372 22.5351C80.1562 21.2776 80.0587 19.9052 79.4662 18.7195ZM62.313 29.1476L51.5599 20.5351C51.0782 20.1493 50.4708 19.9554 49.8546 19.9906C49.2385 20.0257 48.6571 20.2876 48.2224 20.7257C42.6568 26.332 36.4537 25.6226 32.4974 23.1226L46.0099 9.99761H55.9505L64.4537 27.0007L62.313 29.1476ZM49.2287 42.2289L31.0662 37.6882L15.6912 26.707L24.4412 9.20699L39.9974 5.08511L43.0599 5.89449L28.9974 19.5445L28.9724 19.5726C28.4431 20.102 28.0393 20.7434 27.791 21.4497C27.5427 22.1559 27.4561 22.9089 27.5377 23.6531C27.6193 24.3972 27.867 25.1136 28.2624 25.7492C28.6578 26.3849 29.1909 26.9236 29.8224 27.3257C36.2474 31.4289 44.0005 30.7632 50.1068 25.7632L58.7474 32.7039L49.2287 42.2289ZM41.1912 53.1039C41.0561 53.6442 40.7445 54.1239 40.3057 54.467C39.867 54.8101 39.3263 54.9968 38.7693 54.9976C38.5639 54.9973 38.3593 54.9722 38.1599 54.9226L25.1255 51.6632C24.821 51.5881 24.5335 51.4555 24.2787 51.2726L16.0443 45.3914C15.538 44.9938 15.2045 44.4163 15.1134 43.7791C15.0222 43.1418 15.1804 42.494 15.5549 41.9705C15.9294 41.4469 16.4915 41.088 17.124 40.9685C17.7565 40.849 18.4108 40.9781 18.9505 41.3289L26.7974 46.9351L39.3724 50.0726C40.0155 50.2335 40.5684 50.6432 40.9095 51.2116C41.2505 51.7801 41.3519 52.4607 41.1912 53.1039Z" fill="#368836"/>
</svg>
