<svg width="98" height="23" viewBox="0 0 98 23" fill="none" xmlns="http://www.w3.org/2000/svg">
<path d="M4.94884 15.0268C5.06226 15.8183 5.15945 16.5928 5.80222 17.1495C6.64851 17.8821 7.9878 18.0242 9.06389 17.9406C9.86855 17.8781 10.7584 17.6488 11.2844 16.9923C11.6664 16.5154 11.7737 15.8885 11.6874 15.2939C11.6159 14.8004 11.3963 14.3874 10.9773 14.1063C10.4193 13.732 9.7202 13.604 9.07369 13.4642C6.80356 12.9728 3.99313 12.8409 2.10721 11.3728C1.02403 10.5296 0.470576 9.2723 0.303277 7.93288C0.076432 6.11683 0.387699 4.20179 1.5459 2.74005C2.93533 0.986512 5.07721 0.327115 7.21729 0.0813225C8.72208 -0.161505 10.8952 0.167808 12.3126 0.693677C13.6676 1.19622 14.8129 2.0813 15.41 3.42304C15.9336 4.59941 15.8482 5.66004 15.3836 6.84724C14.023 6.91762 12.6518 6.88914 11.2893 6.89249C11.2037 6.32499 11.1456 5.72475 10.7411 5.28214C10.1632 4.64955 9.27437 4.4414 8.44858 4.4142C7.57006 4.38533 6.51098 4.51757 5.85906 5.16343C5.4439 5.57485 5.27325 6.13539 5.28975 6.71088C5.30638 7.29037 5.49739 7.74857 5.98898 8.07685C6.63832 8.51044 7.52676 8.62657 8.28295 8.74927C10.4783 9.10526 13.1907 9.32334 14.8595 10.9494C16.1089 12.1666 16.6252 14.0734 16.635 15.7758C16.6445 17.435 16.1278 18.8943 14.9491 20.0797C13.1114 21.9281 10.4748 22.2209 7.99411 22.2198C5.886 22.1257 3.49265 21.7506 1.88668 20.2539C0.417343 18.8845 0.0786226 16.9924 0 15.0713C1.64979 15.0658 3.29931 15.0509 4.94884 15.0268Z" fill="black"/>
<path d="M30.4199 21.822L30.424 0.391044C31.9221 0.383826 33.4203 0.390269 34.9183 0.410376L34.9281 21.8368L30.4199 21.822Z" fill="black"/>
<path d="M65.8647 21.8823L59.5715 21.8957L52.0645 21.8823L52.0645 0.388184L65.8618 0.399653L65.8604 5.18068C64.2755 5.11043 62.6714 5.14665 61.084 5.14085H56.846V8.89244H60.7325L65.8154 8.88432C65.8555 10.357 65.8358 13.3101 65.8358 13.3101L56.9427 13.408V17.2745H60.5632L65.8643 17.2601L65.8647 21.8823Z" fill="black"/>
<path d="M72.6211 1.4574L72.6294 0.379883L87.1479 0.387356L97.0586 0.382589L89.6061 21.795C86.9151 21.795 87.914 21.7915 85.2248 21.795L69.8633 21.8085C70.2862 20.0269 71.0435 18.2299 71.6304 16.489C72.7883 13.1206 76.6097 1.46113 76.6097 1.46113L72.6211 1.4574ZM83.8478 1.46345C83.8478 1.46345 82.3982 5.75109 81.6796 7.8962C80.8154 10.4973 79.9701 13.1046 79.1437 15.718C78.6109 17.3609 77.7727 20.1394 77.3074 21.802C77.9832 21.8082 82.4466 21.7974 82.4466 21.7974C83.1554 19.4011 84.3859 15.7393 85.2018 13.3767L89.3105 1.46088L86.5791 1.46217L85.2135 1.46281L84.5306 1.46313L84.1892 1.46329L84.0185 1.46337L83.8478 1.46345Z" fill="black"/>
<path d="M23.8007 12.1379C24.0554 10.9757 24.189 9.79254 24.3815 8.61926C24.834 5.89286 25.2568 3.16156 25.6497 0.425885C27.1477 0.360023 28.6779 0.407971 30.1775 0.432718C29.8993 1.85012 29.7566 3.32396 29.5542 4.75567L28.3775 13.1736C28.1675 14.6977 27.3535 19.7953 27.0126 21.5331C27.0126 21.5331 22.4667 21.5331 21.926 21.5331C21.5272 20.4666 19.0742 12.9689 18.7122 11.4089L17.6929 13.3748L17.3561 14.0239C16.833 12.3069 16.2371 10.6888 14.6602 9.68208C15.5572 8.20888 16.3288 6.65215 17.1342 5.12739C17.9336 3.60533 18.7672 2.10145 19.6345 0.617029C20.3355 2.26359 20.9987 3.92614 21.6233 5.60312C22.4083 7.76163 23.0912 9.95404 23.8007 12.1379Z" fill="black"/>
<path d="M35.8233 21.8599C35.7956 14.7184 35.7438 7.56826 35.8162 0.427265L41.5422 0.426105C43.1351 0.421336 44.8357 0.284844 46.3956 0.64973C47.4757 0.902482 48.4332 1.36945 49.2779 2.08904C50.6936 3.2948 51.4836 4.83593 51.6122 6.69568C51.7583 8.80624 51.4366 10.8939 50.0056 12.5321C48.6328 14.1037 46.6416 14.8946 44.5914 15.027C43.3824 15.1528 42.1112 15.0771 40.8948 15.0758C40.8488 17.3419 40.9252 19.6188 40.9086 21.887C39.2135 21.897 37.5183 21.888 35.8233 21.8599ZM40.8951 5.06639L40.9179 10.5071C42.2821 10.5191 44.6856 10.8338 45.709 9.82872C46.2886 9.12215 46.504 8.30396 46.4047 7.40109C46.3274 6.69851 46.0779 6.04517 45.5144 5.59084C44.4834 4.75937 42.1948 5.05053 40.8951 5.06639Z" fill="black"/>
<path d="M40.9173 10.5072L40.8945 5.06649C42.1943 5.05064 44.4828 4.75948 45.5138 5.59094C46.0773 6.04528 46.3268 6.69862 46.4042 7.40119C46.5034 8.30407 46.288 9.12226 45.7084 9.82883C44.685 10.8339 42.2815 10.5192 40.9173 10.5072Z" fill="#E2E2E2"/>
<rect x="84.2598" y="0.174805" width="0.647217" height="1.48315" transform="rotate(18.0016 84.2598 0.174805)" fill="white"/>
</svg>
