<svg width="55" height="65" viewBox="0 0 55 65" fill="none" xmlns="http://www.w3.org/2000/svg">
<path d="M32.5 38.75C32.5 39.9861 32.1334 41.1945 31.4467 42.2223C30.7599 43.2501 29.7838 44.0512 28.6418 44.5242C27.4997 44.9973 26.2431 45.1211 25.0307 44.8799C23.8183 44.6388 22.7047 44.0435 21.8306 43.1694C20.9565 42.2953 20.3612 41.1817 20.1201 39.9693C19.8789 38.7569 20.0027 37.5003 20.4758 36.3582C20.9488 35.2162 21.7499 34.2401 22.7777 33.5533C23.8055 32.8666 25.0139 32.5 26.25 32.5C27.9076 32.5 29.4973 33.1585 30.6694 34.3306C31.8415 35.5027 32.5 37.0924 32.5 38.75ZM55 20V60C55 61.3261 54.4732 62.5979 53.5355 63.5355C52.5979 64.4732 51.3261 65 50 65H5C3.67392 65 2.40215 64.4732 1.46447 63.5355C0.526784 62.5979 0 61.3261 0 60V5C0 3.67392 0.526784 2.40215 1.46447 1.46447C2.40215 0.526785 3.67392 7.72996e-07 5 7.72996e-07H35C35.3284 -0.000257465 35.6536 0.0641895 35.9571 0.18966C36.2606 0.31513 36.5364 0.499165 36.7688 0.731251L54.2688 18.2313C54.5008 18.4636 54.6849 18.7394 54.8103 19.0429C54.9358 19.3464 55.0003 19.6716 55 20ZM39.2688 48.2312L35.7688 44.7344C37.2442 42.3899 37.8041 39.584 37.3415 36.8528C36.8789 34.1216 35.4263 31.6566 33.2611 29.9287C31.096 28.2008 28.3701 27.3312 25.6043 27.486C22.8386 27.6409 20.2268 28.8093 18.2681 30.7681C16.3093 32.7268 15.1409 35.3386 14.986 38.1043C14.8312 40.8701 15.7008 43.596 17.4287 45.7611C19.1566 47.9263 21.6216 49.3789 24.3528 49.8415C27.084 50.3041 29.8899 49.7442 32.2344 48.2688L35.7312 51.7688C35.9635 52.001 36.2393 52.1853 36.5428 52.311C36.8462 52.4367 37.1715 52.5014 37.5 52.5014C37.8285 52.5014 38.1538 52.4367 38.4572 52.311C38.7607 52.1853 39.0365 52.001 39.2688 51.7688C39.501 51.5365 39.6853 51.2607 39.811 50.9572C39.9367 50.6538 40.0014 50.3285 40.0014 50C40.0014 49.6715 39.9367 49.3462 39.811 49.0428C39.6853 48.7393 39.501 48.4635 39.2688 48.2312ZM48.75 20L35 6.25V20H48.75Z" fill="#368836"/>
</svg>
