<svg width="60" height="60" viewBox="0 0 60 60" fill="none" xmlns="http://www.w3.org/2000/svg">
<path d="M55 0H5C3.67392 0 2.40215 0.526784 1.46447 1.46447C0.526784 2.40215 0 3.67392 0 5V55C0 56.3261 0.526784 57.5979 1.46447 58.5355C2.40215 59.4732 3.67392 60 5 60H55C56.3261 60 57.5979 59.4732 58.5355 58.5355C59.4732 57.5979 60 56.3261 60 55V5C60 3.67392 59.4732 2.40215 58.5355 1.46447C57.5979 0.526784 56.3261 0 55 0ZM10 12.5H50C50.663 12.5 51.2989 12.7634 51.7678 13.2322C52.2366 13.7011 52.5 14.337 52.5 15C52.5 15.663 52.2366 16.2989 51.7678 16.7678C51.2989 17.2366 50.663 17.5 50 17.5H10C9.33696 17.5 8.70107 17.2366 8.23223 16.7678C7.76339 16.2989 7.5 15.663 7.5 15C7.5 14.337 7.76339 13.7011 8.23223 13.2322C8.70107 12.7634 9.33696 12.5 10 12.5ZM10 27.5H20C20.663 27.5 21.2989 27.7634 21.7678 28.2322C22.2366 28.7011 22.5 29.337 22.5 30C22.5 30.663 22.2366 31.2989 21.7678 31.7678C21.2989 32.2366 20.663 32.5 20 32.5H10C9.33696 32.5 8.70107 32.2366 8.23223 31.7678C7.76339 31.2989 7.5 30.663 7.5 30C7.5 29.337 7.76339 28.7011 8.23223 28.2322C8.70107 27.7634 9.33696 27.5 10 27.5ZM22.5 47.5H10C9.33696 47.5 8.70107 47.2366 8.23223 46.7678C7.76339 46.2989 7.5 45.663 7.5 45C7.5 44.337 7.76339 43.7011 8.23223 43.2322C8.70107 42.7634 9.33696 42.5 10 42.5H22.5C23.163 42.5 23.7989 42.7634 24.2678 43.2322C24.7366 43.7011 25 44.337 25 45C25 45.663 24.7366 46.2989 24.2678 46.7678C23.7989 47.2366 23.163 47.5 22.5 47.5ZM52.0469 34.7781L46.4656 39.375L48.1656 46.25C48.225 46.4889 48.2124 46.74 48.1296 46.9719C48.0468 47.2037 47.8973 47.4059 47.7 47.5531C47.4836 47.7127 47.222 47.7991 46.9531 47.8C46.7333 47.7987 46.5177 47.7394 46.3281 47.6281L40 43.9187L33.6812 47.6406C33.4691 47.7653 33.225 47.8247 32.9793 47.8112C32.7336 47.7977 32.4973 47.7121 32.3001 47.5649C32.1029 47.4178 31.9536 47.2157 31.8707 46.984C31.7878 46.7523 31.7752 46.5013 31.8344 46.2625L33.5344 39.3875L27.9531 34.7781C27.7613 34.6194 27.6212 34.407 27.5508 34.1681C27.4805 33.9293 27.4831 33.6748 27.5583 33.4375C27.6335 33.2001 27.7779 32.9906 27.973 32.8358C28.168 32.681 28.4049 32.588 28.6531 32.5688L36.0219 32L38.8531 25.4375C38.9501 25.2139 39.1103 25.0234 39.3141 24.8897C39.5178 24.7559 39.7563 24.6847 40 24.6847C40.2437 24.6847 40.4822 24.7559 40.6859 24.8897C40.8897 25.0234 41.0499 25.2139 41.1469 25.4375L43.9781 32L51.3469 32.5688C51.5951 32.588 51.832 32.681 52.027 32.8358C52.2221 32.9906 52.3665 33.2001 52.4417 33.4375C52.5169 33.6748 52.5195 33.9293 52.4492 34.1681C52.3788 34.407 52.2387 34.6194 52.0469 34.7781Z" fill="#368836"/>
</svg>
