<svg width="63" height="63" viewBox="0 0 63 63" fill="none" xmlns="http://www.w3.org/2000/svg">
<path d="M24.325 49.7336C22.9157 52.8148 18.2125 60.0023 4.99692 60.0023C4.33388 60.0023 3.69799 59.7389 3.22915 59.2701C2.76031 58.8013 2.49692 58.1654 2.49692 57.5023C2.49692 44.2867 9.68442 39.5836 12.7657 38.1742C13.0644 38.038 13.3871 37.9619 13.7152 37.9503C14.0434 37.9388 14.3706 37.992 14.6782 38.1069C14.9858 38.2218 15.2678 38.3962 15.508 38.6201C15.7482 38.844 15.9419 39.1129 16.0782 39.4117C16.2144 39.7105 16.2905 40.0331 16.302 40.3613C16.3136 40.6894 16.2604 41.0167 16.1455 41.3243C16.0305 41.6318 15.8562 41.9138 15.6323 42.154C15.4084 42.3942 15.1394 42.588 14.8407 42.7242C12.8313 43.6398 8.39692 46.5867 7.61567 54.8836C15.9125 54.1023 18.8657 49.668 19.775 47.6586C19.9113 47.3598 20.105 47.0908 20.3453 46.867C20.5855 46.6431 20.8674 46.4687 21.175 46.3538C21.4826 46.2389 21.8098 46.1857 22.138 46.1972C22.4661 46.2088 22.7888 46.2848 23.0875 46.4211C23.3863 46.5573 23.6553 46.7511 23.8792 46.9913C24.103 47.2315 24.2774 47.5134 24.3923 47.821C24.5072 48.1286 24.5604 48.4558 24.5489 48.784C24.5374 49.1122 24.4613 49.4348 24.325 49.7336ZM62.45 4.73358C62.376 3.5146 61.8583 2.36488 60.9948 1.50134C60.1312 0.637797 58.9815 0.120154 57.7625 0.0460764C53.8313 -0.188299 43.7844 0.171076 35.45 8.50545L19.9969 23.9711C19.7648 24.2036 19.4893 24.3881 19.1859 24.514C18.8825 24.64 18.5573 24.705 18.2288 24.7053C17.5654 24.7059 16.9289 24.4429 16.4594 23.9742C15.9899 23.5055 15.7258 22.8695 15.7252 22.2061C15.7246 21.5427 15.9876 20.9062 16.4563 20.4367L24.7563 12.1336C24.9301 11.9588 25.0483 11.7365 25.0961 11.4947C25.1439 11.253 25.1191 11.0024 25.0249 10.7747C24.9308 10.5469 24.7714 10.3521 24.5668 10.2147C24.3622 10.0772 24.1215 10.0034 23.875 10.0023H15.7313C15.0727 9.99886 14.4199 10.1264 13.811 10.3774C13.2021 10.6285 12.6492 10.9981 12.1844 11.4648L1.46567 22.1898C0.808319 22.8467 0.347051 23.6738 0.133634 24.5783C-0.0797838 25.4828 -0.0369052 26.4289 0.257458 27.3103C0.55182 28.1918 1.08602 28.9738 1.8001 29.5685C2.51418 30.1633 3.37988 30.5472 4.30004 30.6773L16.3219 32.3555L30.1375 46.1711L31.8157 58.1992C31.9447 59.1194 32.3286 59.9852 32.9239 60.6987C33.5192 61.4122 34.3022 61.9449 35.1844 62.2367C35.6983 62.4084 36.2364 62.4959 36.7782 62.4961C37.4341 62.4973 38.0839 62.3687 38.6899 62.1177C39.296 61.8667 39.8464 61.4983 40.3094 61.0336L51.0344 50.3148C51.4997 49.849 51.8684 49.2959 52.1194 48.6872C52.3704 48.0786 52.4987 47.4263 52.4969 46.768V38.6242C52.4965 38.3771 52.4228 38.1357 52.2853 37.9304C52.1477 37.7251 51.9524 37.5653 51.724 37.471C51.4956 37.3767 51.2443 37.3522 51.002 37.4006C50.7597 37.449 50.5372 37.5681 50.3625 37.743L42.0594 46.043C41.8166 46.286 41.5262 46.4765 41.2065 46.6023C40.8868 46.7282 40.5445 46.7868 40.2011 46.7745C39.8577 46.7622 39.5206 46.6792 39.2107 46.5308C38.9008 46.3823 38.6248 46.1716 38.4 45.9117C37.99 45.4156 37.7816 44.7834 37.8163 44.1407C37.851 43.498 38.1264 42.8919 38.5875 42.443L53.9844 27.0461C62.325 18.7086 62.6844 8.6617 62.45 4.72733V4.73358Z" fill="#368836"/>
</svg>
