<svg width="1233" height="533" viewBox="0 0 1233 533" fill="none" xmlns="http://www.w3.org/2000/svg">
<path d="M0 0L530.927 43.7719L1200 13.8097V273.089V472.96L1232.39 532.369L1008.58 532.369H600H25.5211L0 0Z" fill="#FFCC00"/>
<path opacity="0.2" d="M28.9238 331.275C60.9799 331.275 102.514 320.618 138.211 297.217C173.907 273.816 230.252 215.898 210.614 160.016C203.71 140.368 193.74 126.86 175.46 116.883C154.41 105.394 131.187 108.713 114.165 120.584C94.6283 134.211 81.8958 169.88 86.1681 193.313C93.0407 231.009 128.002 248.22 169.416 255.812C216.539 264.452 254.837 240.81 278.573 201.052C323.273 126.179 325.134 101.173 391.6 41.0713" stroke="#FF4400" stroke-width="16" stroke-linecap="round"/>
<path opacity="0.2" d="M1023.09 34.293C1023.09 54.0186 1037.99 66.0036 1052.49 77.6076C1086.99 105.206 1167.63 126.732 1188.89 181.875" stroke="#FF4400" stroke-width="16" stroke-linecap="round"/>
</svg>
