<svg width="65" height="55" viewBox="0 0 65 55" fill="none" xmlns="http://www.w3.org/2000/svg">
<path d="M60 0H5C3.67392 0 2.40215 0.526784 1.46447 1.46447C0.526784 2.40215 0 3.67392 0 5V50C0 51.3261 0.526784 52.5979 1.46447 53.5355C2.40215 54.4732 3.67392 55 5 55H60C61.3261 55 62.5979 54.4732 63.5355 53.5355C64.4732 52.5979 65 51.3261 65 50V5C65 3.67392 64.4732 2.40215 63.5355 1.46447C62.5979 0.526784 61.3261 0 60 0ZM55 42.5C55.663 42.5 56.2989 42.7634 56.7678 43.2322C57.2366 43.7011 57.5 44.337 57.5 45C57.5 45.663 57.2366 46.2989 56.7678 46.7678C56.2989 47.2366 55.663 47.5 55 47.5H10C9.33696 47.5 8.70107 47.2366 8.23223 46.7678C7.76339 46.2989 7.5 45.663 7.5 45V10C7.5 9.33696 7.76339 8.70107 8.23223 8.23223C8.70107 7.76339 9.33696 7.5 10 7.5C10.663 7.5 11.2989 7.76339 11.7678 8.23223C12.2366 8.70107 12.5 9.33696 12.5 10V29.6625L23.4 20.5781C23.8142 20.233 24.3289 20.031 24.8673 20.0022C25.4057 19.9735 25.9389 20.1196 26.3875 20.4187L39.825 29.3844L53.3906 18.0781C53.9003 17.6538 54.5577 17.4493 55.2182 17.5097C55.8787 17.57 56.4882 17.8903 56.9125 18.4C57.3368 18.9097 57.5413 19.5671 57.481 20.2276C57.4206 20.8881 57.1003 21.4975 56.5906 21.9219L41.5906 34.4219C41.1764 34.767 40.6617 34.969 40.1233 34.9978C39.585 35.0265 39.0517 34.8804 38.6031 34.5813L25.1656 25.6156L12.5 36.1719V42.5H55Z" fill="#F70088"/>
</svg>
