<svg width="65" height="65" viewBox="0 0 65 65" fill="none" xmlns="http://www.w3.org/2000/svg">
<path d="M47.5 0H17.5C12.8602 0.0049632 8.41192 1.8503 5.13111 5.13111C1.8503 8.41192 0.0049632 12.8602 0 17.5V47.5C0.0049632 52.1398 1.8503 56.5881 5.13111 59.8689C8.41192 63.1497 12.8602 64.995 17.5 65H47.5C52.1398 64.995 56.5881 63.1497 59.8689 59.8689C63.1497 56.5881 64.995 52.1398 65 47.5V17.5C64.995 12.8602 63.1497 8.41192 59.8689 5.13111C56.5881 1.8503 52.1398 0.0049632 47.5 0ZM32.5 47.5C29.5333 47.5 26.6332 46.6203 24.1664 44.972C21.6997 43.3238 19.7771 40.9811 18.6418 38.2403C17.5065 35.4994 17.2094 32.4834 17.7882 29.5736C18.367 26.6639 19.7956 23.9912 21.8934 21.8934C23.9912 19.7956 26.6639 18.367 29.5736 17.7882C32.4834 17.2094 35.4994 17.5065 38.2403 18.6418C40.9811 19.7771 43.3238 21.6997 44.972 24.1664C46.6203 26.6332 47.5 29.5333 47.5 32.5C47.4959 36.477 45.9142 40.2899 43.102 43.102C40.2899 45.9142 36.477 47.4959 32.5 47.5ZM51.25 17.5C50.5083 17.5 49.7833 17.2801 49.1666 16.868C48.5499 16.456 48.0693 15.8703 47.7855 15.1851C47.5016 14.4998 47.4274 13.7458 47.5721 13.0184C47.7167 12.291 48.0739 11.6228 48.5984 11.0983C49.1228 10.5739 49.791 10.2167 50.5184 10.0721C51.2458 9.92736 51.9998 10.0016 52.6851 10.2855C53.3703 10.5693 53.956 11.0499 54.368 11.6666C54.7801 12.2833 55 13.0083 55 13.75C55 14.7446 54.6049 15.6984 53.9016 16.4017C53.1984 17.1049 52.2446 17.5 51.25 17.5ZM42.5 32.5C42.5 34.4778 41.9135 36.4112 40.8147 38.0557C39.7159 39.7002 38.1541 40.9819 36.3268 41.7388C34.4996 42.4957 32.4889 42.6937 30.5491 42.3079C28.6093 41.922 26.8275 40.9696 25.4289 39.5711C24.0304 38.1725 23.078 36.3907 22.6921 34.4509C22.3063 32.5111 22.5043 30.5004 23.2612 28.6732C24.0181 26.8459 25.2998 25.2841 26.9443 24.1853C28.5888 23.0865 30.5222 22.5 32.5 22.5C35.1522 22.5 37.6957 23.5536 39.5711 25.4289C41.4464 27.3043 42.5 29.8478 42.5 32.5Z" fill="#368836"/>
</svg>
