<svg width="70" height="70" viewBox="0 0 70 70" fill="none" xmlns="http://www.w3.org/2000/svg">
<path d="M68.5139 21.3678L59.7451 28.7678L62.4201 39.8272C62.6142 40.6278 62.5667 41.468 62.2836 42.2417C62.0005 43.0153 61.4945 43.6878 60.8295 44.1741C60.1566 44.6685 59.3525 44.9528 58.5184 44.9912C57.6843 45.0296 56.8574 44.8203 56.142 44.3897L46.2514 38.4366L36.3608 44.3928C35.6457 44.8246 34.8187 45.0346 33.9843 44.9962C33.1499 44.9579 32.3456 44.6728 31.6733 44.1772C31.0071 43.6918 30.5 43.0196 30.2163 42.2458C29.9325 41.4719 29.8849 40.6313 30.0795 39.8303L32.7545 28.771L23.9889 21.3678C23.3541 20.8313 22.8935 20.1178 22.6658 19.3184C22.4381 18.519 22.4536 17.6699 22.7105 16.8793C22.9673 16.0888 23.4537 15.3927 24.1077 14.8797C24.7617 14.3667 25.5537 14.0602 26.3826 13.9991L37.9264 13.0866L42.367 2.56783C42.6914 1.8061 43.2325 1.15655 43.9232 0.699987C44.6138 0.243423 45.4235 0 46.2514 0C47.0793 0 47.889 0.243423 48.5796 0.699987C49.2702 1.15655 49.8114 1.8061 50.1358 2.56783L54.5764 13.0866L66.1201 13.9991C66.9491 14.0602 67.7411 14.3667 68.3951 14.8797C69.0491 15.3927 69.5355 16.0888 69.7923 16.8793C70.0491 17.6699 70.0647 18.519 69.837 19.3184C69.6093 20.1178 69.1487 20.8313 68.5139 21.3678ZM22.5358 29.9647C22.3036 29.7323 22.0279 29.5479 21.7244 29.4221C21.4209 29.2962 21.0956 29.2315 20.767 29.2315C20.4385 29.2315 20.1132 29.2962 19.8097 29.4221C19.5062 29.5479 19.2304 29.7323 18.9983 29.9647L0.73264 48.2303C0.263539 48.6994 0 49.3357 0 49.9991C0 50.6625 0.263539 51.2987 0.73264 51.7678C1.20174 52.2369 1.83798 52.5005 2.50139 52.5005C3.1648 52.5005 3.80104 52.2369 4.27014 51.7678L22.5358 33.5022C22.7682 33.27 22.9526 32.9943 23.0784 32.6908C23.2042 32.3873 23.269 32.062 23.269 31.7335C23.269 31.4049 23.2042 31.0796 23.0784 30.7761C22.9526 30.4726 22.7682 30.1969 22.5358 29.9647ZM22.3795 49.0866L5.73264 65.7303C5.50036 65.9626 5.31611 66.2384 5.19041 66.5418C5.0647 66.8453 5 67.1706 5 67.4991C5 67.8276 5.0647 68.1528 5.19041 68.4563C5.31611 68.7598 5.50036 69.0356 5.73264 69.2678C6.20174 69.7369 6.83798 70.0005 7.50139 70.0005C7.82988 70.0005 8.15515 69.9358 8.45863 69.8101C8.76211 69.6844 9.03786 69.5001 9.27014 69.2678L25.9139 52.621C26.3629 52.1483 26.6096 51.5189 26.6012 50.867C26.5929 50.2151 26.3302 49.5923 25.8692 49.1313C25.4082 48.6703 24.7854 48.4076 24.1334 48.3992C23.4815 48.3909 22.8522 48.6375 22.3795 49.0866ZM45.192 48.7741L28.2264 65.7366C27.9941 65.9689 27.8099 66.2446 27.6842 66.5481C27.5585 66.8516 27.4937 67.1768 27.4937 67.5053C27.4937 67.8338 27.5585 68.1591 27.6842 68.4626C27.8099 68.7661 27.9941 69.0418 28.2264 69.2741C28.6955 69.7432 29.3317 70.0067 29.9951 70.0067C30.3236 70.0067 30.6489 69.942 30.9524 69.8163C31.2559 69.6906 31.5316 69.5064 31.7639 69.2741L48.7264 52.3116C49.1955 51.8429 49.4592 51.207 49.4595 50.5439C49.4598 49.8808 49.1966 49.2447 48.728 48.7756C48.2593 48.3065 47.6234 48.0428 46.9603 48.0425C46.2972 48.0423 45.6611 48.3054 45.192 48.7741Z" fill="#368836"/>
</svg>
