<svg width="60" height="59" viewBox="0 0 60 59" fill="none" xmlns="http://www.w3.org/2000/svg">
<path d="M21.2514 48.75C21.2514 50.7278 20.6649 52.6612 19.5661 54.3057C18.4673 55.9502 16.9055 57.2319 15.0782 57.9888C13.251 58.7457 11.2403 58.9437 9.30049 58.5579C7.36068 58.172 5.57885 57.2196 4.18032 55.8211C2.7818 54.4225 1.82939 52.6407 1.44354 50.7009C1.05769 48.7611 1.25572 46.7504 2.01259 44.9232C2.76947 43.0959 4.0512 41.5341 5.69569 40.4353C7.34018 39.3365 9.27358 38.75 11.2514 38.75C13.9036 38.75 16.4471 39.8036 18.3225 41.6789C20.1978 43.5543 21.2514 46.0978 21.2514 48.75ZM4.27014 26.7688L8.75139 22.2844L13.2326 26.7688C13.7017 27.2379 14.338 27.5014 15.0014 27.5014C15.6648 27.5014 16.301 27.2379 16.7701 26.7688C17.2392 26.2996 17.5028 25.6634 17.5028 25C17.5028 24.3366 17.2392 23.7004 16.7701 23.2312L12.2858 18.75L16.7701 14.2688C17.2392 13.7996 17.5028 13.1634 17.5028 12.5C17.5028 11.8366 17.2392 11.2004 16.7701 10.7312C16.301 10.2621 15.6648 9.99861 15.0014 9.99861C14.338 9.99861 13.7017 10.2621 13.2326 10.7312L8.75139 15.2156L4.27014 10.7312C3.80104 10.2621 3.1648 9.99861 2.50139 9.99861C1.83798 9.99861 1.20174 10.2621 0.73264 10.7313C0.263538 11.2004 9.88558e-09 11.8366 0 12.5C-9.88558e-09 13.1634 0.263538 13.7996 0.73264 14.2688L5.21701 18.75L0.73264 23.2312C0.263538 23.7004 -4.94279e-09 24.3366 0 25C4.94279e-09 25.6634 0.263538 26.2996 0.73264 26.7688C1.20174 27.2379 1.83798 27.5014 2.50139 27.5014C3.1648 27.5014 3.80104 27.2379 4.27014 26.7688ZM54.7858 48.75L59.2701 44.2688C59.7392 43.7996 60.0028 43.1634 60.0028 42.5C60.0028 41.8366 59.7392 41.2004 59.2701 40.7312C58.801 40.2621 58.1648 39.9986 57.5014 39.9986C56.838 39.9986 56.2017 40.2621 55.7326 40.7312L51.2514 45.2156L46.7701 40.7312C46.301 40.2621 45.6648 39.9986 45.0014 39.9986C44.338 39.9986 43.7017 40.2621 43.2326 40.7312C42.7635 41.2004 42.5 41.8366 42.5 42.5C42.5 43.1634 42.7635 43.7996 43.2326 44.2688L47.717 48.75L43.2326 53.2312C42.7635 53.7004 42.5 54.3366 42.5 55C42.5 55.6634 42.7635 56.2996 43.2326 56.7688C43.7017 57.2379 44.338 57.5014 45.0014 57.5014C45.6648 57.5014 46.301 57.2379 46.7701 56.7688L51.2514 52.2844L55.7326 56.7688C55.9649 57.001 56.2407 57.1853 56.5442 57.311C56.8476 57.4367 57.1729 57.5014 57.5014 57.5014C57.8299 57.5014 58.1552 57.4367 58.4586 57.311C58.7621 57.1853 59.0379 57.001 59.2701 56.7688C59.5024 56.5365 59.6867 56.2607 59.8124 55.9572C59.9381 55.6538 60.0028 55.3285 60.0028 55C60.0028 54.6715 59.9381 54.3462 59.8124 54.0428C59.6867 53.7393 59.5024 53.4635 59.2701 53.2312L54.7858 48.75ZM39.2701 5.73125L38.5358 5H45.0014C45.6644 5 46.3003 4.73661 46.7692 4.26777C47.238 3.79893 47.5014 3.16304 47.5014 2.5C47.5014 1.83696 47.238 1.20107 46.7692 0.732234C46.3003 0.263393 45.6644 0 45.0014 0H32.5014C31.8383 0 31.2025 0.263393 30.7336 0.732234C30.2648 1.20107 30.0014 1.83696 30.0014 2.5V15C30.0014 15.663 30.2648 16.2989 30.7336 16.7678C31.2025 17.2366 31.8383 17.5 32.5014 17.5C33.1644 17.5 33.8003 17.2366 34.2692 16.7678C34.738 16.2989 35.0014 15.663 35.0014 15V8.53438L35.7326 9.26875C41.3358 14.8719 41.3264 20.3312 40.3295 23.925C38.8795 29.1656 34.2795 33.8531 29.392 35.075C28.8002 35.2233 28.283 35.583 27.9379 36.0862C27.5929 36.5894 27.4438 37.2015 27.5187 37.807C27.5936 38.4125 27.8874 38.9698 28.3447 39.3737C28.802 39.7776 29.3912 40.0004 30.0014 40C30.2068 39.9997 30.4114 39.9745 30.6108 39.925C37.2389 38.2687 43.2201 32.2375 45.1514 25.2594C47.0576 18.3688 44.9701 11.4344 39.2701 5.73125Z" fill="#270AFF"/>
</svg>
