<svg width="1233" height="660" viewBox="0 0 1233 660" fill="none" xmlns="http://www.w3.org/2000/svg">
<path d="M0 7.02612L530.927 50.798L1200 20.8359V400.115V599.986L1232.39 659.395L1008.58 659.395H600H25.5211L0 7.02612Z" fill="#FFCC00"/>
<path opacity="0.2" d="M28.083 448.822C34.1217 471.359 49.439 498.553 72.6156 519.241C95.7921 539.929 147.126 568.631 182.714 544.298C195.227 535.742 202.846 526.189 206.417 511.457C210.529 494.494 203.821 478.792 192.267 469.061C179.007 457.892 151.531 455.66 135.861 463.078C110.654 475.011 105.14 502.833 107.604 533.38C110.407 568.137 134.243 590.609 166.666 599.807C227.726 617.129 245.658 613.726 300.433 649.133" stroke="#FF4400" stroke-width="16" stroke-linecap="round"/>
<path opacity="0.2" d="M199.297 38.197C180.243 33.0916 164.812 44.3767 149.849 55.3842C114.263 81.5635 72.6 153.881 13.8302 160.153" stroke="#FF4400" stroke-width="16" stroke-linecap="round"/>
</svg>
